<svg width="60" height="24" viewBox="0 0 60 24" fill="none" xmlns="http://www.w3.org/2000/svg">
<path fill-rule="evenodd" clip-rule="evenodd" d="M49.3973 4.46727C49.4051 4.42126 49.414 4.37525 49.4234 4.33035C49.49 4.01661 49.5971 3.71838 49.7386 3.44011C49.9229 3.07925 50.1654 2.75331 50.4539 2.47449C50.5161 2.41407 50.6149 2.41407 50.677 2.47449C50.9656 2.75386 51.2081 3.08036 51.3918 3.44122C51.5333 3.71894 51.6404 4.01716 51.7065 4.33035C51.7159 4.37581 51.7248 4.42126 51.7325 4.46671C51.7503 4.57093 51.7642 4.6768 51.7725 4.78434C51.7736 4.7982 51.7747 4.81261 51.7758 4.82647C51.7986 4.82481 51.8219 4.82314 51.8441 4.82148C53.505 4.71505 54.5411 5.36028 55.1571 6.0177L57.6849 9.26547C57.8042 9.4179 57.772 9.63908 57.6144 9.75161L55.1349 11.5282C55.0317 11.6025 54.8957 11.6125 54.7809 11.5581C52.9656 10.7 50.4318 10.3708 46.5771 11.8807C41.561 13.8458 36.2512 16.2782 36.2512 16.2782C36.2512 16.2782 29.356 19.5902 22.8354 21.0315L23.3199 23.2194C26.7478 22.4616 30.2273 21.2249 32.8172 20.1967C34.1197 19.6795 35.214 19.2083 35.9849 18.8652C36.3706 18.6933 36.6763 18.5537 36.8872 18.4555C36.9926 18.4068 37.0748 18.368 37.1314 18.3414C37.143 18.3358 37.1541 18.3308 37.1636 18.3264C37.1769 18.3203 37.188 18.3147 37.1969 18.3103L37.2002 18.3087H37.2019C37.2019 18.3087 37.2019 18.3075 37.2024 18.3075C37.2118 18.3031 37.2257 18.297 37.244 18.2887C37.2829 18.271 37.3412 18.2443 37.4172 18.21C37.5698 18.1407 37.794 18.0392 38.0792 17.9112C38.6497 17.6551 39.4627 17.2926 40.4316 16.8696C42.3728 16.0215 44.925 14.9351 47.3956 13.9672C50.7803 12.6418 52.6599 13.0348 53.8208 13.5836C54.6427 13.9722 55.6499 13.9168 56.4424 13.3491L58.9219 11.5725C60.1133 10.7189 60.3558 9.04651 59.4557 7.8902L56.8647 4.5615L56.7948 4.48667C56.0539 3.69565 54.9723 2.97116 53.5178 2.69123C53.2087 2.00054 52.7708 1.38192 52.2387 0.865849C51.3063 -0.0376938 49.8252 -0.0382481 48.8923 0.864186C48.162 1.57094 47.611 2.46839 47.3241 3.47836C45.9284 3.96783 44.7907 4.09865 43.814 4.04876C42.5715 3.98501 41.4305 3.62082 40.1531 3.06927C39.713 2.87914 39.2446 2.65686 38.7457 2.41961C36.5043 1.35531 33.6513 0 30.0225 0C25.457 0 22.2638 1.46618 19.5768 2.69954C19.4564 2.75497 19.3365 2.80985 19.2178 2.86417C16.4846 4.11472 14.266 5.03434 11.0107 4.6574C9.29644 4.45895 8.33139 4.18623 7.12328 3.60585C6.11772 3.12304 4.99062 2.45398 3.24032 1.41407C2.62434 1.04822 1.93065 0.63636 1.13764 0.170731L0 2.10254C0.740852 2.53823 1.40512 2.93236 2.00779 3.29045C6.19874 5.7799 7.40408 6.49608 10.7521 6.88355C14.8065 7.35306 17.5662 6.08755 20.4614 4.7605C23.1501 3.5277 25.9553 2.24112 30.0225 2.24112C33.0947 2.24112 35.3988 3.32703 37.6236 4.37581C40.9444 5.94121 44.0882 7.42291 49.3452 5.08478C49.3452 4.87414 49.3629 4.66793 49.3973 4.46782V4.46727Z" fill="url(#paint0_radial_2229_2979)"/>
<path fill-rule="evenodd" clip-rule="evenodd" d="M29.5458 8.76059C29.2883 8.08764 28.75 7.33488 27.7439 6.581L29.0902 4.78833C30.3649 5.74342 31.2045 6.8177 31.6418 7.96015C32.0808 9.10759 32.0869 10.2534 31.8044 11.2944C31.3246 13.0594 30.0191 14.5232 28.5582 15.3283C28.296 15.4728 28.2285 15.8251 28.4626 16.0116C29.0307 16.4638 29.8914 17.0039 30.9898 17.597C33.9532 19.1968 38.047 20.8753 40.6247 21.9246L39.7785 24C37.2246 22.9606 33.0131 21.2367 29.9232 19.5687C28.4159 18.755 27.0169 17.8742 26.2583 17.0144C25.9009 16.6092 25.4498 15.9468 25.5841 15.1419C25.7295 14.2716 26.4459 13.8093 27.0502 13.5682C28.1812 13.1164 29.2889 11.9967 29.639 10.7079C29.8078 10.0871 29.8016 9.42965 29.5464 8.76114L29.5458 8.76059Z" fill="url(#paint1_linear_2229_2979)"/>
<defs>
<radialGradient id="paint0_radial_2229_2979" cx="0" cy="0" r="1" gradientUnits="userSpaceOnUse" gradientTransform="translate(39.1249) rotate(135.136) scale(30.6624 79.1437)">
<stop offset="0.5625" stop-color="white"/>
<stop offset="0.990797" stop-color="white" stop-opacity="0"/>
</radialGradient>
<linearGradient id="paint1_linear_2229_2979" x1="26.2071" y1="12.8805" x2="24.0598" y2="7.77505" gradientUnits="userSpaceOnUse">
<stop stop-color="white"/>
<stop offset="1" stop-color="white" stop-opacity="0"/>
</linearGradient>
</defs>
</svg>
