<svg width="32" height="32" viewBox="0 0 32 32" fill="none" xmlns="http://www.w3.org/2000/svg">
<g clip-path="url(#clip0_5581_10329)">
<path d="M32 0H0V32H32V0Z" fill="black"/>
<path d="M23.9881 9.30706L22.6691 13.3632C22.6104 13.5442 22.4452 13.6665 22.2589 13.6665H18.4204C18.2342 13.6665 18.0689 13.7888 18.0102 13.9698L15.1719 22.6967C15.1132 22.8777 14.9479 23 14.7617 23H10.6541C10.4988 23 10.3891 22.8441 10.4383 22.6929L13.2738 13.974C13.323 13.8228 13.2133 13.667 13.058 13.667H9.22768C9.07242 13.667 8.9627 13.5111 9.01187 13.3599L10.3308 9.30332C10.3896 9.12226 10.5548 9 10.7411 9H23.7723C23.9275 9 24.0373 9.15586 23.9881 9.30706Z" fill="white"/>
</g>
<defs>
<clipPath id="clip0_5581_10329">
<rect width="32" height="32" rx="16" fill="white"/>
</clipPath>
</defs>
</svg>
