<svg xmlns="http://www.w3.org/2000/svg" xmlns:xlink="http://www.w3.org/1999/xlink" width="1080" zoomAndPan="magnify" viewBox="0 0 810 817.499971" height="1090" preserveAspectRatio="xMidYMid meet" version="1.0"><defs><clipPath id="675c37bbf1"><path d="M 0.246094 623 L 809.75 623 L 809.75 709 L 0.246094 709 Z M 0.246094 623 " clip-rule="nonzero"/></clipPath><clipPath id="583f67980a"><path d="M 0.246094 81.851562 L 809.75 81.851562 L 809.75 585 L 0.246094 585 Z M 0.246094 81.851562 " clip-rule="nonzero"/></clipPath></defs><g clip-path="url(#675c37bbf1)"><path fill="#120802" d="M 813.15625 623.160156 L 0.246094 623.160156 L 0.246094 708.84375 L 813.15625 708.84375 Z M 813.15625 623.160156 " fill-opacity="1" fill-rule="nonzero"/></g><g clip-path="url(#583f67980a)"><path fill="#120802" d="M 693.785156 584.269531 L 813.5 584.269531 L 813.5 412.898438 L 625.324219 412.898438 L 768.777344 269.398438 L 647.6875 148.269531 L 492.875 303.125 L 492.875 81.851562 L 321.558594 81.851562 L 321.558594 303.8125 L 166.0625 148.613281 L 44.96875 269.398438 L 188.425781 412.898438 L 0.246094 412.898438 L 0.246094 584.269531 L 124.09375 584.269531 C 269.957031 582.550781 386.234375 464.171875 387.609375 317.921875 L 387.609375 296.929688 L 426.140625 296.929688 L 426.140625 317.921875 C 427.515625 464.859375 545.171875 584.269531 692.0625 584.269531 " fill-opacity="1" fill-rule="nonzero"/></g></svg>