<svg width="318" height="76" viewBox="0 0 318 76" fill="none" xmlns="http://www.w3.org/2000/svg">
<path d="M115.782 54.6903H115.367L115.196 55.0604C113.366 59.032 107.062 63.7722 96.842 63.7722C90.5955 63.7722 85.8499 62.1067 82.5194 59.2597C79.3604 56.5551 77.4164 52.7117 76.6874 48.0426H129.704V38.8754C129.704 30.1636 126.202 23.0889 120.256 18.1921C114.309 13.2953 105.947 10.6191 96.2417 10.6191C85.3639 10.6191 76.6731 13.9786 70.6839 19.7437C64.709 25.5231 61.5071 33.6654 61.5071 43.1316C61.5071 52.5978 64.566 60.7117 70.5409 66.6049C76.5159 72.4982 85.3639 76 96.8134 76C117.268 76 128.232 64.5693 129.804 55.4448L129.933 54.6761H115.767H115.782V54.6903ZM96.1416 22.9893C101.416 22.9893 106.219 24.2704 109.664 26.7615C112.951 29.1245 115.053 32.6405 115.224 37.338H76.7017C76.8875 32.5978 79.0602 29.096 82.4336 26.733C85.9785 24.2419 90.8528 22.9893 96.1273 22.9893H96.1416Z" fill="#2C2A2A"/>
<path d="M309.652 16.3273C304.364 12.1564 296.874 10.6333 288.054 10.6333C275.99 10.6333 268.314 13.3095 263.597 17.2241C258.88 21.1529 257.236 26.2774 257.107 30.9749V31.644H271.487L271.544 31.0461C271.702 29.1671 272.645 27.1031 275.061 25.4945C277.505 23.8717 281.507 22.6618 287.825 22.6618C293.686 22.6618 297.488 23.7721 299.818 25.6226C302.105 27.4447 303.077 30.0354 303.077 33.2952V35.9856H299.932C278.034 35.9856 268.071 38.2774 261.924 42.192L262.268 42.7187V42.7472L261.939 42.192C256.25 45.8646 253.462 50.676 253.462 56.5693C253.462 61.1671 255.078 65.9074 259.151 69.4803C263.225 73.0675 269.672 75.4163 279.22 75.4163C289.398 75.4163 299.118 71.7152 304.607 66.5622V74.8611H318V37.4234C318 27.2739 315.027 20.5123 309.695 16.3273H309.667H309.652ZM298.189 60.0995C294.687 62.3202 289.341 64.0711 282.065 64.0711C277.219 64.0711 273.674 63.3024 271.359 61.9358C269.086 60.5977 267.985 58.6618 267.985 56.1992C267.985 54.1493 268.8 52.5266 270.315 51.1885C271.845 49.8362 274.117 48.7828 276.99 47.9856C282.722 46.3913 290.656 45.9073 299.346 45.9073H303.306V53.5515C303.306 54.3771 302.934 55.4447 302.077 56.6262C301.233 57.7792 299.947 59.0034 298.189 60.1138V60.0995Z" fill="#2C2A2A"/>
<path d="M247.23 62.776L247.188 62.1212C245.101 62.2351 243.843 62.2351 242.442 62.2351C237.882 62.2351 235.038 61.7084 233.294 60.3988C231.621 59.1177 230.835 56.9967 230.835 53.2956V25.2956H247.188V12.3134H230.835V0.0856323H216.67V4.18528C216.67 7.68706 216.198 9.97887 214.84 11.4024C213.496 12.8258 211.109 13.5803 206.821 13.5803H206.164V25.2814H215.984V56.5127C215.984 62.5483 217.399 67.3454 221.115 70.591C224.817 73.8223 230.649 75.4166 239.169 75.4166C241.527 75.4166 244.114 75.3027 247.288 74.9611L247.874 74.8899V62.0643L247.173 62.107L247.216 62.7618L247.23 62.776Z" fill="#2C2A2A"/>
<path d="M189.768 54.6903H189.354L189.182 55.0604C187.353 59.032 181.049 63.7722 170.829 63.7722C164.596 63.7722 159.851 62.1067 156.506 59.2597C153.347 56.5551 151.403 52.7117 150.688 48.0426H203.719V38.8754C203.719 30.1636 200.217 23.0889 194.271 18.1921C188.325 13.2953 179.963 10.6191 170.257 10.6191C159.379 10.6191 150.688 13.9786 144.713 19.7437C138.739 25.5231 135.537 33.6654 135.537 43.1316C135.537 52.5978 138.596 60.7117 144.57 66.6049C150.545 72.4982 159.393 76 170.843 76C191.284 76 202.261 64.5693 203.834 55.4448L203.962 54.6761H189.797L189.768 54.6903ZM170.128 22.9893C175.403 22.9893 180.206 24.2704 183.65 26.7615C186.938 29.1245 189.039 32.6405 189.211 37.338H150.688C150.874 32.5978 153.047 29.096 156.42 26.733C159.965 24.2419 164.839 22.9893 170.114 22.9893H170.128Z" fill="#2C2A2A"/>
<path d="M60.564 0.0996438H40.4808L14.7515 27.3025V0H0V74.6335H14.7515V43.0748L60.564 0.0996438Z" fill="#2C2A2A"/>
<path d="M23.0138 36.1282C23.5284 57.6798 42.0392 75.4734 63.709 74.5908V62.5624C60.0355 62.3773 55.7044 61.4947 52.4453 59.9574C46.013 56.968 41.5961 52.8257 39.2519 46.2065C38.0941 42.9609 37.5938 39.5303 37.751 36.1282H22.9995H23.0138Z" fill="url(#paint0_linear_2888_5978)"/>
<defs>
<linearGradient id="paint0_linear_2888_5978" x1="44.1547" y1="56.0143" x2="41.2908" y2="34.972" gradientUnits="userSpaceOnUse">
<stop stop-color="#2C2A2A"/>
<stop offset="0.28" stop-color="#2C2A2A" stop-opacity="0.87"/>
<stop offset="0.64" stop-color="#2C2A2A" stop-opacity="0.52"/>
<stop offset="1" stop-color="#2C2A2A" stop-opacity="0"/>
</linearGradient>
</defs>
</svg>
